# xmcd
#
# Track frame offsets: 
#        150
#        15671
#        36775
#        57035
#        70963
#        91077
#        106970
#        121200
#        135066
#        149004
#        163605
#        179908
#        198170
#        218536
#
# Disc length: 3083 seconds
#
# Revision: 0
# Processed by: cddbd v1.5.2PL0 Copyright (c) Steve Scherf et al.
# Submitted via: ExactAudioCopy v0.99pb3
#
DISCID=bc0c090e
DTITLE=ZVA 18-28 Band - Hruba Muka
DYEAR=2005
DGENRE=Blues
TTITLE0=Dake Blues
TTITLE1=Nepochopil
TTITLE2=Autobager
TTITLE3=Hollow Tooth
TTITLE4=Najest a Napit
TTITLE5=IBA
TTITLE6=Blues Vymiataneho Pera
TTITLE7=Soferove schody
TTITLE8=Zhulacke Blues
TTITLE9=Dotkni sa ma
TTITLE10=Drnda Blues
TTITLE11=Blby Den
TTITLE12=Bejby bejby
TTITLE13=Muka
EXTD=
EXTT0=
EXTT1=
EXTT2=
EXTT3=
EXTT4=
EXTT5=
EXTT6=
EXTT7=
EXTT8=
EXTT9=
EXTT10=
EXTT11=
EXTT12=
EXTT13=
PLAYORDER=
